<svg width="100%" height="100%" viewBox="0 0 177 76" fill="none" preserveAspectRatio="none" xmlns="http://www.w3.org/2000/svg">
<path d="M27.488 27.238C27.38 27.418 27.26 27.556 27.128 27.652C27.008 27.736 26.858 27.778 26.678 27.778C26.474 27.778 26.234 27.676 25.958 27.472C25.682 27.268 25.334 27.046 24.914 26.806C24.506 26.554 24.008 26.326 23.42 26.122C22.844 25.918 22.142 25.816 21.314 25.816C20.534 25.816 19.844 25.924 19.244 26.14C18.656 26.344 18.158 26.626 17.75 26.986C17.354 27.346 17.054 27.772 16.85 28.264C16.646 28.744 16.544 29.266 16.544 29.83C16.544 30.55 16.718 31.15 17.066 31.63C17.426 32.098 17.894 32.5 18.47 32.836C19.058 33.172 19.718 33.466 20.45 33.718C21.194 33.958 21.95 34.21 22.718 34.474C23.498 34.738 24.254 35.038 24.986 35.374C25.73 35.698 26.39 36.112 26.966 36.616C27.554 37.12 28.022 37.738 28.37 38.47C28.73 39.202 28.91 40.102 28.91 41.17C28.91 42.298 28.718 43.36 28.334 44.356C27.95 45.34 27.386 46.198 26.642 46.93C25.91 47.662 25.004 48.238 23.924 48.658C22.856 49.078 21.638 49.288 20.27 49.288C18.59 49.288 17.066 48.988 15.698 48.388C14.33 47.776 13.16 46.954 12.188 45.922L13.196 44.266C13.292 44.134 13.406 44.026 13.538 43.942C13.682 43.846 13.838 43.798 14.006 43.798C14.162 43.798 14.336 43.864 14.528 43.996C14.732 44.116 14.96 44.272 15.212 44.464C15.464 44.656 15.752 44.866 16.076 45.094C16.4 45.322 16.766 45.532 17.174 45.724C17.594 45.916 18.068 46.078 18.596 46.21C19.124 46.33 19.718 46.39 20.378 46.39C21.206 46.39 21.944 46.276 22.592 46.048C23.24 45.82 23.786 45.502 24.23 45.094C24.686 44.674 25.034 44.176 25.274 43.6C25.514 43.024 25.634 42.382 25.634 41.674C25.634 40.894 25.454 40.258 25.094 39.766C24.746 39.262 24.284 38.842 23.708 38.506C23.132 38.17 22.472 37.888 21.728 37.66C20.984 37.42 20.228 37.18 19.46 36.94C18.692 36.688 17.936 36.4 17.192 36.076C16.448 35.752 15.788 35.332 15.212 34.816C14.636 34.3 14.168 33.658 13.808 32.89C13.46 32.11 13.286 31.15 13.286 30.01C13.286 29.098 13.46 28.216 13.808 27.364C14.168 26.512 14.684 25.756 15.356 25.096C16.04 24.436 16.874 23.908 17.858 23.512C18.854 23.116 19.994 22.918 21.278 22.918C22.718 22.918 24.026 23.146 25.202 23.602C26.39 24.058 27.434 24.718 28.334 25.582L27.488 27.238ZM35.9905 33.196C36.7705 32.368 37.6345 31.708 38.5825 31.216C39.5305 30.724 40.6225 30.478 41.8585 30.478C42.8545 30.478 43.7305 30.646 44.4865 30.982C45.2545 31.306 45.8905 31.774 46.3945 32.386C46.9105 32.986 47.3005 33.712 47.5645 34.564C47.8285 35.416 47.9605 36.358 47.9605 37.39V49H44.7385V37.39C44.7385 36.01 44.4205 34.942 43.7845 34.186C43.1605 33.418 42.2065 33.034 40.9225 33.034C39.9745 33.034 39.0865 33.262 38.2585 33.718C37.4425 34.174 36.6865 34.792 35.9905 35.572V49H32.7685V22.486H35.9905V33.196ZM60.5287 30.478C61.8607 30.478 63.0607 30.7 64.1287 31.144C65.1967 31.588 66.1087 32.218 66.8647 33.034C67.6207 33.85 68.1967 34.84 68.5927 36.004C69.0007 37.156 69.2047 38.446 69.2047 39.874C69.2047 41.314 69.0007 42.61 68.5927 43.762C68.1967 44.914 67.6207 45.898 66.8647 46.714C66.1087 47.53 65.1967 48.16 64.1287 48.604C63.0607 49.036 61.8607 49.252 60.5287 49.252C59.1847 49.252 57.9727 49.036 56.8927 48.604C55.8247 48.16 54.9127 47.53 54.1567 46.714C53.4007 45.898 52.8187 44.914 52.4107 43.762C52.0147 42.61 51.8167 41.314 51.8167 39.874C51.8167 38.446 52.0147 37.156 52.4107 36.004C52.8187 34.84 53.4007 33.85 54.1567 33.034C54.9127 32.218 55.8247 31.588 56.8927 31.144C57.9727 30.7 59.1847 30.478 60.5287 30.478ZM60.5287 46.75C62.3287 46.75 63.6727 46.15 64.5607 44.95C65.4487 43.738 65.8927 42.052 65.8927 39.892C65.8927 37.72 65.4487 36.028 64.5607 34.816C63.6727 33.604 62.3287 32.998 60.5287 32.998C59.6167 32.998 58.8187 33.154 58.1347 33.466C57.4627 33.778 56.8987 34.228 56.4427 34.816C55.9987 35.404 55.6627 36.13 55.4347 36.994C55.2187 37.846 55.1107 38.812 55.1107 39.892C55.1107 42.052 55.5547 43.738 56.4427 44.95C57.3427 46.15 58.7047 46.75 60.5287 46.75ZM76.3105 34.42C76.8865 33.172 77.5945 32.2 78.4345 31.504C79.2745 30.796 80.3005 30.442 81.5125 30.442C81.8965 30.442 82.2625 30.484 82.6105 30.568C82.9705 30.652 83.2885 30.784 83.5645 30.964L83.3305 33.358C83.2585 33.658 83.0785 33.808 82.7905 33.808C82.6225 33.808 82.3765 33.772 82.0525 33.7C81.7285 33.628 81.3625 33.592 80.9545 33.592C80.3785 33.592 79.8625 33.676 79.4065 33.844C78.9625 34.012 78.5605 34.264 78.2005 34.6C77.8525 34.924 77.5345 35.332 77.2465 35.824C76.9705 36.304 76.7185 36.856 76.4905 37.48V49H73.2685V30.766H75.1045C75.4525 30.766 75.6925 30.832 75.8245 30.964C75.9565 31.096 76.0465 31.324 76.0945 31.648L76.3105 34.42ZM91.9798 49.288C90.5398 49.288 89.4298 48.886 88.6498 48.082C87.8818 47.278 87.4978 46.12 87.4978 44.608V33.448H85.3018C85.1098 33.448 84.9478 33.394 84.8158 33.286C84.6838 33.166 84.6178 32.986 84.6178 32.746V31.468L87.6058 31.09L88.3438 25.456C88.3798 25.276 88.4578 25.132 88.5778 25.024C88.7098 24.904 88.8778 24.844 89.0818 24.844H90.7018V31.126H95.9758V33.448H90.7018V44.392C90.7018 45.16 90.8878 45.73 91.2598 46.102C91.6318 46.474 92.1118 46.66 92.6998 46.66C93.0358 46.66 93.3238 46.618 93.5638 46.534C93.8158 46.438 94.0318 46.336 94.2118 46.228C94.3918 46.12 94.5418 46.024 94.6618 45.94C94.7938 45.844 94.9078 45.796 95.0038 45.796C95.1718 45.796 95.3218 45.898 95.4538 46.102L96.3898 47.632C95.8378 48.148 95.1718 48.556 94.3918 48.856C93.6118 49.144 92.8078 49.288 91.9798 49.288ZM109.783 46.228C110.851 46.228 111.805 46.048 112.645 45.688C113.485 45.328 114.193 44.824 114.769 44.176C115.357 43.528 115.801 42.754 116.101 41.854C116.413 40.954 116.569 39.964 116.569 38.884V23.206H120.043V38.884C120.043 40.372 119.803 41.752 119.323 43.024C118.855 44.296 118.177 45.4 117.289 46.336C116.413 47.26 115.339 47.986 114.067 48.514C112.795 49.042 111.367 49.306 109.783 49.306C108.199 49.306 106.771 49.042 105.499 48.514C104.227 47.986 103.147 47.26 102.259 46.336C101.371 45.4 100.687 44.296 100.207 43.024C99.7392 41.752 99.5052 40.372 99.5052 38.884V23.206H102.979V38.866C102.979 39.946 103.129 40.936 103.429 41.836C103.741 42.736 104.185 43.51 104.761 44.158C105.349 44.806 106.063 45.316 106.903 45.688C107.755 46.048 108.715 46.228 109.783 46.228ZM133.448 35.698C134.456 35.698 135.344 35.578 136.112 35.338C136.892 35.086 137.54 34.738 138.056 34.294C138.584 33.838 138.98 33.298 139.244 32.674C139.508 32.05 139.64 31.36 139.64 30.604C139.64 29.068 139.136 27.91 138.128 27.13C137.12 26.35 135.608 25.96 133.592 25.96H129.776V35.698H133.448ZM145.364 49H142.268C141.632 49 141.164 48.754 140.864 48.262L134.168 39.046C133.964 38.758 133.742 38.554 133.502 38.434C133.274 38.302 132.914 38.236 132.422 38.236H129.776V49H126.302V23.206H133.592C135.224 23.206 136.634 23.374 137.822 23.71C139.01 24.034 139.988 24.508 140.756 25.132C141.536 25.756 142.112 26.512 142.484 27.4C142.856 28.276 143.042 29.26 143.042 30.352C143.042 31.264 142.898 32.116 142.61 32.908C142.322 33.7 141.902 34.414 141.35 35.05C140.81 35.674 140.144 36.208 139.352 36.652C138.572 37.096 137.684 37.432 136.688 37.66C137.132 37.912 137.516 38.278 137.84 38.758L145.364 49ZM163.506 46.066V49H148.872V23.206H152.346V46.066H163.506Z" fill="currentColor"/>
<line x1="11" y1="11.5" x2="165" y2="11.5" stroke="currentColor" stroke-width="5"/>
<line x1="11" y1="59.5" x2="98" y2="59.5" stroke="currentColor" stroke-width="5"/>
</svg>
