<svg width="100%" height="100%" viewBox="0 0 114 76" fill="none" preserveAspectRatio="none"
     xmlns="http://www.w3.org/2000/svg">
    <path d="M30.736 26.14H22.384V49H18.91V26.14H10.54V23.206H30.736V26.14ZM41.617 37.894C41.617 37.15 41.509 36.472 41.293 35.86C41.089 35.236 40.783 34.702 40.375 34.258C39.979 33.802 39.493 33.454 38.917 33.214C38.341 32.962 37.687 32.836 36.955 32.836C35.419 32.836 34.201 33.286 33.301 34.186C32.413 35.074 31.861 36.31 31.645 37.894H41.617ZM44.209 46.444C43.813 46.924 43.339 47.344 42.787 47.704C42.235 48.052 41.641 48.34 41.005 48.568C40.381 48.796 39.733 48.964 39.061 49.072C38.389 49.192 37.723 49.252 37.063 49.252C35.803 49.252 34.639 49.042 33.571 48.622C32.515 48.19 31.597 47.566 30.817 46.75C30.049 45.922 29.449 44.902 29.017 43.69C28.585 42.478 28.369 41.086 28.369 39.514C28.369 38.242 28.561 37.054 28.945 35.95C29.341 34.846 29.905 33.892 30.637 33.088C31.369 32.272 32.263 31.636 33.319 31.18C34.375 30.712 35.563 30.478 36.883 30.478C37.975 30.478 38.983 30.664 39.907 31.036C40.843 31.396 41.647 31.924 42.319 32.62C43.003 33.304 43.537 34.156 43.921 35.176C44.305 36.184 44.497 37.336 44.497 38.632C44.497 39.136 44.443 39.472 44.335 39.64C44.227 39.808 44.023 39.892 43.723 39.892H31.537C31.573 41.044 31.729 42.046 32.005 42.898C32.293 43.75 32.689 44.464 33.193 45.04C33.697 45.604 34.297 46.03 34.993 46.318C35.689 46.594 36.469 46.732 37.333 46.732C38.137 46.732 38.827 46.642 39.403 46.462C39.991 46.27 40.495 46.066 40.915 45.85C41.335 45.634 41.683 45.436 41.959 45.256C42.247 45.064 42.493 44.968 42.697 44.968C42.961 44.968 43.165 45.07 43.309 45.274L44.209 46.444ZM60.6365 37.894C60.6365 37.15 60.5285 36.472 60.3125 35.86C60.1085 35.236 59.8025 34.702 59.3945 34.258C58.9985 33.802 58.5125 33.454 57.9365 33.214C57.3605 32.962 56.7065 32.836 55.9745 32.836C54.4385 32.836 53.2205 33.286 52.3205 34.186C51.4325 35.074 50.8805 36.31 50.6645 37.894H60.6365ZM63.2285 46.444C62.8325 46.924 62.3585 47.344 61.8065 47.704C61.2545 48.052 60.6605 48.34 60.0245 48.568C59.4005 48.796 58.7525 48.964 58.0805 49.072C57.4085 49.192 56.7425 49.252 56.0825 49.252C54.8225 49.252 53.6585 49.042 52.5905 48.622C51.5345 48.19 50.6165 47.566 49.8365 46.75C49.0685 45.922 48.4685 44.902 48.0365 43.69C47.6045 42.478 47.3885 41.086 47.3885 39.514C47.3885 38.242 47.5805 37.054 47.9645 35.95C48.3605 34.846 48.9245 33.892 49.6565 33.088C50.3885 32.272 51.2825 31.636 52.3385 31.18C53.3945 30.712 54.5825 30.478 55.9025 30.478C56.9945 30.478 58.0025 30.664 58.9265 31.036C59.8625 31.396 60.6665 31.924 61.3385 32.62C62.0225 33.304 62.5565 34.156 62.9405 35.176C63.3245 36.184 63.5165 37.336 63.5165 38.632C63.5165 39.136 63.4625 39.472 63.3545 39.64C63.2465 39.808 63.0425 39.892 62.7425 39.892H50.5565C50.5925 41.044 50.7485 42.046 51.0245 42.898C51.3125 43.75 51.7085 44.464 52.2125 45.04C52.7165 45.604 53.3165 46.03 54.0125 46.318C54.7085 46.594 55.4885 46.732 56.3525 46.732C57.1565 46.732 57.8465 46.642 58.4225 46.462C59.0105 46.27 59.5145 46.066 59.9345 45.85C60.3545 45.634 60.7025 45.436 60.9785 45.256C61.2665 45.064 61.5125 44.968 61.7165 44.968C61.9805 44.968 62.1845 45.07 62.3285 45.274L63.2285 46.444ZM70.4761 33.412C70.8721 32.968 71.2921 32.566 71.7361 32.206C72.1801 31.846 72.6481 31.54 73.1401 31.288C73.6441 31.024 74.1721 30.826 74.7241 30.694C75.2881 30.55 75.8941 30.478 76.5421 30.478C77.5381 30.478 78.4141 30.646 79.1701 30.982C79.9381 31.306 80.5741 31.774 81.0781 32.386C81.5941 32.986 81.9841 33.712 82.2481 34.564C82.5121 35.416 82.6441 36.358 82.6441 37.39V49H79.4221V37.39C79.4221 36.01 79.1041 34.942 78.4681 34.186C77.8441 33.418 76.8901 33.034 75.6061 33.034C74.6581 33.034 73.7701 33.262 72.9421 33.718C72.1261 34.174 71.3701 34.792 70.6741 35.572V49H67.4521V30.766H69.3781C69.8341 30.766 70.1161 30.988 70.2241 31.432L70.4761 33.412ZM102.801 30.766L92.6313 54.382C92.5233 54.622 92.3853 54.814 92.2173 54.958C92.0613 55.102 91.8153 55.174 91.4793 55.174H89.1033L92.4333 47.938L84.9093 30.766H87.6813C87.9573 30.766 88.1733 30.838 88.3293 30.982C88.4973 31.114 88.6113 31.264 88.6713 31.432L93.5493 42.916C93.7413 43.42 93.9033 43.948 94.0352 44.5C94.2033 43.936 94.3833 43.402 94.5753 42.898L99.3093 31.432C99.3813 31.24 99.5013 31.084 99.6693 30.964C99.8493 30.832 100.047 30.766 100.263 30.766H102.801Z"
          fill="currentColor"/>
    <line x1="10" y1="11.5" x2="104" y2="11.5" stroke="currentColor" stroke-width="5"/>
    <line x1="10" y1="59.5" x2="57" y2="59.5" stroke="currentColor" stroke-width="5"/>
</svg>
